<?xml version="1.0" encoding="UTF-8" standalone="no"?>
<!-- Created with Inkscape (http://www.inkscape.org/) -->

<svg
   xmlns:dc="http://purl.org/dc/elements/1.1/"
   xmlns:cc="http://creativecommons.org/ns#"
   xmlns:rdf="http://www.w3.org/1999/02/22-rdf-syntax-ns#"
   xmlns:svg="http://www.w3.org/2000/svg"
   xmlns="http://www.w3.org/2000/svg"
   xmlns:sodipodi="http://sodipodi.sourceforge.net/DTD/sodipodi-0.dtd"
   xmlns:inkscape="http://www.inkscape.org/namespaces/inkscape"
   width="48.587997mm"
   height="18.29952mm"
   viewBox="0 0 48.587997 18.299521"
   version="1.1"
   id="svg4368"
   inkscape:version="0.92.4 (5da689c313, 2019-01-14)"
   sodipodi:docname="arhi-pro-logo.svg"
   inkscape:export-filename="/home/ink/documents/arhi-pro/BrandBook/arhi-pro-logo.png"
   inkscape:export-xdpi="302.42999"
   inkscape:export-ydpi="302.42999">
  <defs
     id="defs4362" />
  <sodipodi:namedview
     id="base"
     pagecolor="#ffffff"
     bordercolor="#666666"
     borderopacity="1.0"
     inkscape:pageopacity="0.0"
     inkscape:pageshadow="2"
     inkscape:zoom="3.77"
     inkscape:cx="68.239752"
     inkscape:cy="66.360649"
     inkscape:document-units="mm"
     inkscape:current-layer="layer1"
     showgrid="false"
     fit-margin-top="5"
     fit-margin-left="5"
     fit-margin-right="5"
     fit-margin-bottom="5"
     inkscape:window-width="1360"
     inkscape:window-height="718"
     inkscape:window-x="0"
     inkscape:window-y="445"
     inkscape:window-maximized="1"
     showguides="true"
     inkscape:guide-bbox="true" />
  <metadata
     id="metadata4365">
    <rdf:RDF>
      <cc:Work
         rdf:about="">
        <dc:format>image/svg+xml</dc:format>
        <dc:type
           rdf:resource="http://purl.org/dc/dcmitype/StillImage" />
        <dc:title />
      </cc:Work>
    </rdf:RDF>
  </metadata>
  <g
     inkscape:label="Layer 1"
     inkscape:groupmode="layer"
     id="layer1"
     transform="translate(-165.45005,-132.88001)">
    <g
       id="g194">
      <g
         id="g170">
        <g
           id="g147">
          <g
             id="g125">
            <path
               d="m 174.36651,141.6766 c -0.0769,0 -0.13917,0.10125 -0.13917,0.22578 0,0.12523 0.0623,0.22648 0.13917,0.22648 h 3.54006 c 0.0769,0 0.13917,-0.10125 0.13917,-0.22648 0,-0.12453 -0.0623,-0.22578 -0.13917,-0.22578 h -3.54006"
               style="fill:#231f20;fill-opacity:1;fill-rule:nonzero;stroke:none;stroke-width:0.03527778"
               id="path4219"
               inkscape:connector-curvature="0" />
            <path
               d="m 190.14574,141.85828 -1.91559,1.91558 c -0.0882,0.0882 -0.0882,0.23178 0,0.31997 0.0885,0.0882 0.23178,0.0882 0.31997,0 l 1.91523,-1.91593 c 0.0885,-0.0878 0.0885,-0.23143 0,-0.31962 -0.0878,-0.0882 -0.23142,-0.0882 -0.31961,0"
               style="fill:#231f20;fill-opacity:1;fill-rule:nonzero;stroke:none;stroke-width:0.03527778"
               id="path4221"
               inkscape:connector-curvature="0" />
            <path
               d="m 177.86812,138.01547 -5.74644,5.7464 c -0.0882,0.0882 -0.0882,0.23142 0,0.31997 0.0883,0.0878 0.23181,0.0878 0.31987,0 l 5.74639,-5.7464 c 0.0883,-0.0885 0.0883,-0.23177 0,-0.31997 -0.0883,-0.0882 -0.23149,-0.0882 -0.31982,0"
               style="fill:#231f20;fill-opacity:1;fill-rule:nonzero;stroke:none;stroke-width:0.03527778"
               id="path4223"
               inkscape:connector-curvature="0" />
            <path
               d="m 177.81975,138.18727 v 5.7464 c 0,0.12489 0.10128,0.22649 0.22613,0.22649 0.12513,0 0.22613,-0.1016 0.22613,-0.22649 v -5.7464 c 0,-0.12453 -0.101,-0.22577 -0.22613,-0.22577 -0.12485,0 -0.22613,0.10124 -0.22613,0.22577"
               style="fill:#231f20;fill-opacity:1;fill-rule:nonzero;stroke:none;stroke-width:0.03527778"
               id="path4225"
               inkscape:connector-curvature="0" />
            <path
               d="m 186.90141,139.91342 -3.96377,3.8929 c -0.0891,0.0878 -0.0905,0.23072 -0.003,0.31997 0.0878,0.0889 0.23083,0.09 0.31997,0.003 l 3.96381,-3.89325 c 0.0893,-0.0879 0.0907,-0.23037 0.003,-0.31962 -0.0874,-0.0889 -0.23054,-0.0903 -0.31987,-0.003"
               style="fill:#231f20;fill-opacity:1;fill-rule:nonzero;stroke:none;stroke-width:0.03527778"
               id="path4227"
               inkscape:connector-curvature="0" />
            <path
               d="m 182.99937,139.93423 c -0.0864,0.0903 -0.0836,0.23354 0.007,0.31962 l 3.98173,3.82376 c 0.0901,0.0868 0.23301,0.0836 0.31955,-0.007 0.0864,-0.0896 0.0838,-0.23283 -0.006,-0.31926 l -3.98188,-3.82341 c -0.0898,-0.0864 -0.23301,-0.0836 -0.31969,0.006"
               style="fill:#231f20;fill-opacity:1;fill-rule:nonzero;stroke:none;stroke-width:0.03527778"
               id="path4229"
               inkscape:connector-curvature="0" />
            <path
               d="m 188.16383,140.10251 v 3.83116 c 0,0.12489 0.1016,0.22649 0.22648,0.22649 0.12453,0 0.22613,-0.1016 0.22613,-0.22649 v -3.83116 c 0,-0.12454 -0.1016,-0.22614 -0.22613,-0.22614 -0.12488,0 -0.22648,0.1016 -0.22648,0.22614"
               style="fill:#231f20;fill-opacity:1;fill-rule:nonzero;stroke:none;stroke-width:0.03527778"
               id="path4231"
               inkscape:connector-curvature="0" />
            <path
               d="m 170.8973,145.45838 h 7.05351"
               style="fill:none;stroke:#ed1248;stroke-width:0.88194442;stroke-linecap:round;stroke-linejoin:miter;stroke-miterlimit:4;stroke-dasharray:none;stroke-opacity:1"
               id="path4233"
               inkscape:connector-curvature="0" />
            <path
               d="m 190.07941,140.10251 v 3.83116 c 0,0.12489 0.10125,0.22649 0.22649,0.22649 0.12417,0 0.22577,-0.1016 0.22577,-0.22649 v -3.83116 c 0,-0.12454 -0.1016,-0.22614 -0.22577,-0.22614 -0.12524,0 -0.22649,0.1016 -0.22649,0.22614"
               style="fill:#231f20;fill-opacity:1;fill-rule:nonzero;stroke:none;stroke-width:0.03527778"
               id="path4235"
               inkscape:connector-curvature="0" />
            <path
               d="m 197.95377,138.18234 v 5.73934 c 0,0.12488 0.10124,0.22613 0.22648,0.22613 0.12488,0 0.22613,-0.10125 0.22613,-0.22613 v -5.73934 c 0,-0.12453 -0.10125,-0.22613 -0.22613,-0.22613 -0.12524,0 -0.22648,0.1016 -0.22648,0.22613"
               style="fill:#231f20;fill-opacity:1;fill-rule:nonzero;stroke:none;stroke-width:0.03527778"
               id="path4237"
               inkscape:connector-curvature="0" />
            <path
               d="m 198.206,137.95621 c -0.12418,0 -0.22401,0.1016 -0.22401,0.22683 7e-4,0.12453 0.10054,0.22578 0.22472,0.22543 1.38359,-0.002 2.20098,0.30409 2.64336,0.56056 0.52176,0.30374 0.8128,0.70344 0.81809,1.12607 0.0109,0.85513 -1.17616,1.75013 -3.4671,1.80728 -0.12417,0.002 -0.22189,0.10654 -0.21907,0.23142 0.004,0.12488 0.10654,0.22366 0.23001,0.22049 1.18569,-0.0293 2.18405,-0.27411 2.88607,-0.70768 0.66499,-0.41098 1.02729,-0.96379 1.01918,-1.55751 -0.008,-0.58808 -0.37783,-1.12501 -1.04316,-1.51165 -0.70203,-0.40817 -1.69369,-0.62266 -2.86809,-0.62124"
               style="fill:#231f20;fill-opacity:1;fill-rule:nonzero;stroke:none;stroke-width:0.03527778"
               id="path4239"
               inkscape:connector-curvature="0" />
            <path
               d="m 193.70632,138.17528 v 5.7464 c 0,0.12488 0.10125,0.22613 0.22613,0.22613 0.12489,0 0.22613,-0.10125 0.22613,-0.22613 v -5.7464 c 0,-0.12453 -0.10124,-0.22578 -0.22613,-0.22578 -0.12488,0 -0.22613,0.10125 -0.22613,0.22578"
               style="fill:#231f20;fill-opacity:1;fill-rule:nonzero;stroke:none;stroke-width:0.03527778"
               id="path4241"
               inkscape:connector-curvature="0" />
            <path
               d="m 196.57934,138.17528 v 5.7464 c 0,0.12488 0.10196,0.22613 0.22649,0.22613 0.12488,0 0.22613,-0.10125 0.22613,-0.22613 v -5.7464 c 0,-0.12453 -0.10125,-0.22578 -0.22613,-0.22578 -0.12453,0 -0.22649,0.10125 -0.22649,0.22578"
               style="fill:#231f20;fill-opacity:1;fill-rule:nonzero;stroke:none;stroke-width:0.03527778"
               id="path4243"
               inkscape:connector-curvature="0" />
            <path
               d="m 196.80512,137.94421 -2.7813,0.005 c -0.12488,0 -0.22613,0.10125 -0.22578,0.22613 3.6e-4,0.12489 0.10196,0.22613 0.22684,0.22613 l 2.78095,-0.005 c 0.12488,-3.5e-4 0.22613,-0.1016 0.22613,-0.22683 -7.1e-4,-0.12453 -0.1016,-0.22543 -0.22684,-0.22543"
               style="fill:#231f20;fill-opacity:1;fill-rule:nonzero;stroke:none;stroke-width:0.03527778"
               id="path4245"
               inkscape:connector-curvature="0" />
            <path
               d="m 202.67993,141.05924 c 0,1.7526 1.42593,3.17888 3.17853,3.17888 1.7533,0 3.17958,-1.42628 3.17958,-3.17888 0,-1.75295 -1.42628,-3.17923 -3.17958,-3.17923 -1.7526,0 -3.17853,1.42628 -3.17853,3.17923 z m 0.45191,0 c 0,-1.50389 1.22308,-2.72733 2.72662,-2.72733 1.50389,0 2.72767,1.22344 2.72767,2.72733 0,1.50318 -1.22378,2.72662 -2.72767,2.72662 -1.50354,0 -2.72662,-1.22344 -2.72662,-2.72662"
               style="fill:#231f20;fill-opacity:1;fill-rule:nonzero;stroke:none;stroke-width:0.03527778"
               id="path4247"
               inkscape:connector-curvature="0" />
            <path
               d="m 179.06562,140.24009 v 5.4991 c 0,0.13123 0.10114,0.23742 0.22599,0.23742 0.12499,0 0.22627,-0.10619 0.22627,-0.23742 v -5.4991 c 0,-0.13088 -0.10128,-0.23742 -0.22627,-0.23742 -0.12485,0 -0.22599,0.10654 -0.22599,0.23742"
               style="fill:#231f20;fill-opacity:1;fill-rule:nonzero;stroke:none;stroke-width:0.03527778"
               id="path4249"
               inkscape:connector-curvature="0" />
            <path
               d="m 179.33172,140.00267 c -0.12347,0 -0.22352,0.1016 -0.22352,0.22648 2.8e-4,0.12489 0.10061,0.22578 0.22394,0.22578 1.25265,-0.002 1.9921,0.27587 2.39145,0.50906 0.46838,0.2734 0.72926,0.63218 0.73406,1.01071 0.0103,0.77082 -1.06246,1.57797 -3.13115,1.62912 -0.12361,0.003 -0.22091,0.1069 -0.2183,0.23178 0.003,0.12488 0.10555,0.22331 0.22917,0.22049 1.08066,-0.0272 1.99044,-0.25153 2.63221,-0.64912 0.61006,-0.37817 0.94227,-0.889 0.93539,-1.43827 -0.007,-0.54398 -0.34713,-1.03999 -0.95772,-1.39665 -0.64121,-0.37394 -1.54562,-0.57079 -2.61553,-0.56938"
               style="fill:#231f20;fill-opacity:1;fill-rule:nonzero;stroke:none;stroke-width:0.03527778"
               id="path4251"
               inkscape:connector-curvature="0" />
            <text
               xml:space="preserve"
               style="font-style:italic;font-variant:normal;font-weight:500;font-stretch:normal;font-size:2.0165503px;line-height:1.25;font-family:'URW Chancery L';-inkscape-font-specification:'URW Chancery L, Medium Italic';font-variant-ligatures:normal;font-variant-caps:normal;font-variant-numeric:normal;font-feature-settings:normal;text-align:start;letter-spacing:0px;word-spacing:0px;writing-mode:lr-tb;text-anchor:start;fill:#000000;fill-opacity:1;stroke:none;stroke-width:0.16804586"
               x="185.60097"
               y="141.49586"
               id="text98"
               transform="scale(0.97023343,1.0306798)"><tspan
                 sodipodi:role="line"
                 id="tspan96"
                 x="185.60097"
                 y="141.49586"
                 style="font-style:italic;font-variant:normal;font-weight:500;font-stretch:normal;font-size:2.0165503px;font-family:'URW Chancery L';-inkscape-font-specification:'URW Chancery L, Medium Italic';font-variant-ligatures:normal;font-variant-caps:normal;font-variant-numeric:normal;font-feature-settings:normal;text-align:start;writing-mode:lr-tb;text-anchor:start;stroke-width:0.16804586">наивысшая степень профессионализма</tspan></text>
          </g>
        </g>
      </g>
    </g>
  </g>
</svg>
